<?xml version="1.0" encoding="utf-8"?>
<!-- Generator: Adobe Illustrator 21.1.0, SVG Export Plug-In . SVG Version: 6.00 Build 0)  -->
<svg version="1.1" id="Layer_1" xmlns="http://www.w3.org/2000/svg" xmlns:xlink="http://www.w3.org/1999/xlink" x="0px" y="0px"
	 viewBox="0 0 127.4 182.1" style="enable-background:new 0 0 127.4 182.1;" xml:space="preserve">
<style type="text/css">
	.st0{fill:#FFFFFF;}
	.st1{fill:none;stroke:#FFFFFF;stroke-linecap:round;stroke-linejoin:round;stroke-miterlimit:10;}
</style>
<g>
	<path class="st0" d="M13.9,169.8c-3.1,0-5.8-0.2-8.1-0.5c-2.3-0.3-4.3-0.7-5.9-1.1V150c1.7,0.4,3.6,0.7,5.5,1s4,0.4,6.3,0.4
		c2.2,0,4.2-0.2,6.1-0.7c1.9-0.5,3.5-1.3,4.9-2.4c1.4-1.2,2.5-2.7,3.3-4.6c0.8-1.9,1.2-4.4,1.2-7.3V36H49v99.7
		c0,5.9-0.9,11.1-2.6,15.4c-1.7,4.3-4.1,7.8-7.2,10.7c-3.1,2.8-6.8,4.9-11.1,6.2C23.9,169.2,19.1,169.8,13.9,169.8z"/>
</g>
<g>
	<g>
		<path class="st0" d="M127.4,182.1H67.9V78.6h59.6v18H89.8v22.7h35v18h-35V164h37.6V182.1z"/>
	</g>
</g>
<line class="st1" x1="40.5" y1="8.6" x2="74.8" y2="19.9"/>
<line class="st1" x1="74.8" y1="19.9" x2="76.6" y2="55.9"/>
<circle class="st0" cx="40.5" cy="8.6" r="8.6"/>
<circle class="st0" cx="74.8" cy="19.9" r="8.6"/>
<circle class="st0" cx="76.6" cy="55.9" r="8.6"/>
</svg>
